<svg width="16" height="16" viewBox="0 0 16 16" fill="none" xmlns="http://www.w3.org/2000/svg">
<path d="M5.44498 11.6083C5.56938 11.6998 5.78947 11.8117 6.10526 11.9439C6.42105 12.066 6.79426 12.127 7.22488 12.127C7.59809 12.127 7.90431 12.0609 8.14354 11.9286C8.38278 11.7862 8.56459 11.5777 8.689 11.3031C8.82297 11.0285 8.90909 10.6725 8.94737 10.2352C8.99522 9.7978 9.01914 9.27399 9.01914 8.66373V2.98828H11V8.49591C11 9.30959 10.9569 10.0521 10.8708 10.7234C10.7847 11.3947 10.6172 11.9744 10.3684 12.4626C10.1196 12.9508 9.74163 13.3272 9.23445 13.5916C8.73684 13.8561 8.07177 13.9883 7.23923 13.9883C6.7799 13.9883 6.36842 13.9323 6.00478 13.8205C5.64115 13.7086 5.30622 13.5408 5 13.317L5.44498 11.6083Z" fill="#FEDD00"/>
</svg>
