<svg width="128" height="128" viewBox="0 0 128 128" fill="none" xmlns="http://www.w3.org/2000/svg">
<path d="M16 42.6667V58.6667C16 60.0812 16.5619 61.4377 17.5621 62.4379C18.5623 63.4381 19.9188 64 21.3333 64H37.3333M37.3333 42.6667V85.3333M90.6667 42.6667V58.6667C90.6667 60.0812 91.2286 61.4377 92.2288 62.4379C93.229 63.4381 94.5855 64 96 64H112M112 42.6667V85.3333M53.3333 53.3333V74.6667C53.3333 77.4956 54.4571 80.2088 56.4575 82.2091C58.4579 84.2095 61.171 85.3333 64 85.3333C66.829 85.3333 69.5421 84.2095 71.5425 82.2091C73.5429 80.2088 74.6667 77.4956 74.6667 74.6667V53.3333C74.6667 50.5044 73.5429 47.7913 71.5425 45.7909C69.5421 43.7905 66.829 42.6667 64 42.6667C61.171 42.6667 58.4579 43.7905 56.4575 45.7909C54.4571 47.7913 53.3333 50.5044 53.3333 53.3333Z" stroke="black" stroke-width="4" stroke-linecap="round" stroke-linejoin="round"/>
</svg>
