<svg width="30" height="33" viewBox="0 0 30 33" fill="none" xmlns="http://www.w3.org/2000/svg">
<path d="M29.9954 30.4707H1.22656V32.9366H29.9954V30.4707Z" fill="#D1D5D9"/>
<path d="M29.9985 22.9336H15.2031V25.3995H29.9985V22.9336Z" fill="#D1D5D9"/>
<path d="M29.9997 15.3965H18.4922V17.8624H29.9997V15.3965Z" fill="#D1D5D9"/>
<path d="M3.21115 25.4487L1.559 24.5898L0.289062 19.2758L0.395918 18.4209L9.21561 1.45965L10.8801 0.933594L17.2298 4.2379L17.7558 5.90238L8.93203 22.8636L8.2909 23.439L3.21115 25.4487ZM2.79606 19.1484L3.63035 22.6335L6.95931 21.3142L14.9981 5.85717L10.8349 3.69129L2.79606 19.1484Z" fill="#D1D5D9"/>
<path d="M7.76286 4.79963L6.625 6.9873L14.9418 11.3131L16.0797 9.1254L7.76286 4.79963Z" fill="#D1D5D9"/>
</svg>
