<svg width="90" height="37" viewBox="0 0 90 37" fill="none" xmlns="http://www.w3.org/2000/svg">
<path d="M9.73649 1.01562C2.86654 1.01562 0.078125 1.06767 0.078125 1.06767V36.6425H5.61692V25.7791H10.5872C10.5872 25.7791 18.2919 25.707 18.2919 18.0744V8.73832C18.2919 8.73832 19.1086 1.01562 9.73649 1.01562ZM12.9673 16.8654C12.9673 20.3083 9.80656 20.0261 9.80656 20.0261H5.61692V6.46435C5.61692 6.46435 6.68185 6.51639 9.82457 6.51639C12.9673 6.51639 12.9673 9.65912 12.9673 9.65912V16.8654Z" fill="white"/>
<path d="M36.0293 1.01562H27.5619L21.3125 36.6425H27.2777L28.4127 30.323H35.1765L36.3115 36.6425H42.2767L36.0293 1.01562ZM28.9811 24.9984L31.7956 8.376L34.61 24.9984H28.9831H28.9811Z" fill="white"/>
<path d="M59.6372 11.6465H65.4783C65.152 9.28841 67.1377 1.45762 56.9569 0.710975C44.9845 0.460758 44.4461 12.1829 49.6426 17.4695C52.0567 20.2379 59.4431 23.2205 59.5131 27.4101C60.0296 33.4694 52.7412 32.7607 52.6251 28.435V26.0609H46.66C46.73 28.0186 46.3717 30.4728 47.4206 32.2063C48.1072 33.3372 49.7847 36.6401 54.2586 36.8543C60.8623 37.693 65.8106 33.9918 65.4803 27.8425C65.2341 25.3303 66.4451 24.5636 61.4308 19.5273C57.3112 15.9061 52.5551 13.9885 52.5551 9.87091C52.5411 4.46023 59.337 4.51627 59.5852 9.09023L59.6392 11.6465H59.6372Z" fill="white"/>
<path d="M84.0669 11.6465H89.908C89.5817 9.28841 91.5674 1.45762 81.3866 0.710975C69.4142 0.460758 68.8757 12.1829 74.0722 17.4695C76.4863 20.2379 83.8727 23.2205 83.9428 27.4101C84.4592 33.4694 77.1709 32.7607 77.0548 28.435V26.0609H71.0897C71.1597 28.0186 70.8014 30.4728 71.8503 32.2063C72.5369 33.3372 74.2144 36.6401 78.6882 36.8543C85.292 37.693 90.2403 33.9918 89.91 27.8425C89.6638 25.3303 90.8748 24.5636 85.8605 19.5273C81.7409 15.9061 76.9848 13.9885 76.9848 9.87091C76.9708 4.46023 83.7667 4.51627 84.0149 9.09023L84.0689 11.6465H84.0669Z" fill="white"/>
</svg>
